# Wavefront OBJ file automatically generated by Tiled2Unity

# Vertices (Count = 357)
v 0 -64 0
v -64 -64 0
v -64 0 0
v 0 0 0
v -128 -64 0
v -128 0 0
v -192 -64 0
v -192 0 0
v -256 -64 0
v -256 0 0
v -320 -64 0
v -320 0 0
v -384 -64 0
v -384 0 0
v -448 -64 0
v -448 0 0
v -512 -64 0
v -512 0 0
v -576 -64 0
v -576 0 0
v -640 -64 0
v -640 0 0
v -704 -64 0
v -704 0 0
v -768 -64 0
v -768 0 0
v -832 -64 0
v -832 0 0
v -896 -64 0
v -896 0 0
v -960 -64 0
v -960 0 0
v -1024 -64 0
v -1024 0 0
v -1088 -64 0
v -1088 0 0
v -1152 -64 0
v -1152 0 0
v -1216 -64 0
v -1216 0 0
v -1280 -64 0
v -1280 0 0
v 0 -128 0
v -64 -128 0
v -128 -128 0
v -192 -128 0
v -256 -128 0
v -320 -128 0
v -384 -128 0
v -448 -128 0
v -512 -128 0
v -576 -128 0
v -640 -128 0
v -704 -128 0
v -768 -128 0
v -832 -128 0
v -896 -128 0
v -960 -128 0
v -1024 -128 0
v -1088 -128 0
v -1152 -128 0
v -1216 -128 0
v -1280 -128 0
v 0 -192 0
v -64 -192 0
v -128 -192 0
v -192 -192 0
v -256 -192 0
v -320 -192 0
v -384 -192 0
v -448 -192 0
v -512 -192 0
v -576 -192 0
v -640 -192 0
v -704 -192 0
v -768 -192 0
v -832 -192 0
v -896 -192 0
v -960 -192 0
v -1024 -192 0
v -1088 -192 0
v -1152 -192 0
v -1216 -192 0
v -1280 -192 0
v 0 -256 0
v -64 -256 0
v -128 -256 0
v -192 -256 0
v -256 -256 0
v -320 -256 0
v -384 -256 0
v -448 -256 0
v -512 -256 0
v -576 -256 0
v -640 -256 0
v -704 -256 0
v -768 -256 0
v -832 -256 0
v -896 -256 0
v -960 -256 0
v -1024 -256 0
v -1088 -256 0
v -1152 -256 0
v -1216 -256 0
v -1280 -256 0
v 0 -320 0
v -64 -320 0
v -128 -320 0
v -192 -320 0
v -256 -320 0
v -320 -320 0
v -384 -320 0
v -448 -320 0
v -512 -320 0
v -576 -320 0
v -640 -320 0
v -704 -320 0
v -768 -320 0
v -832 -320 0
v -896 -320 0
v -960 -320 0
v -1024 -320 0
v -1088 -320 0
v -1152 -320 0
v -1216 -320 0
v -1280 -320 0
v 0 -384 0
v -64 -384 0
v -128 -384 0
v -192 -384 0
v -256 -384 0
v -320 -384 0
v -384 -384 0
v -448 -384 0
v -512 -384 0
v -576 -384 0
v -640 -384 0
v -704 -384 0
v -768 -384 0
v -832 -384 0
v -896 -384 0
v -960 -384 0
v -1024 -384 0
v -1088 -384 0
v -1152 -384 0
v -1216 -384 0
v -1280 -384 0
v 0 -448 0
v -64 -448 0
v -128 -448 0
v -192 -448 0
v -256 -448 0
v -320 -448 0
v -384 -448 0
v -448 -448 0
v -512 -448 0
v -576 -448 0
v -640 -448 0
v -704 -448 0
v -768 -448 0
v -832 -448 0
v -896 -448 0
v -960 -448 0
v -1024 -448 0
v -1088 -448 0
v -1152 -448 0
v -1216 -448 0
v -1280 -448 0
v 0 -512 0
v -64 -512 0
v -128 -512 0
v -192 -512 0
v -256 -512 0
v -320 -512 0
v -384 -512 0
v -448 -512 0
v -512 -512 0
v -576 -512 0
v -640 -512 0
v -704 -512 0
v -768 -512 0
v -832 -512 0
v -896 -512 0
v -960 -512 0
v -1024 -512 0
v -1088 -512 0
v -1152 -512 0
v -1216 -512 0
v -1280 -512 0
v 0 -576 0
v -64 -576 0
v -128 -576 0
v -192 -576 0
v -256 -576 0
v -320 -576 0
v -384 -576 0
v -448 -576 0
v -512 -576 0
v -576 -576 0
v -640 -576 0
v -704 -576 0
v -768 -576 0
v -832 -576 0
v -896 -576 0
v -960 -576 0
v -1024 -576 0
v -1088 -576 0
v -1152 -576 0
v -1216 -576 0
v -1280 -576 0
v 0 -640 0
v -64 -640 0
v -128 -640 0
v -192 -640 0
v -256 -640 0
v -320 -640 0
v -384 -640 0
v -448 -640 0
v -512 -640 0
v -576 -640 0
v -640 -640 0
v -704 -640 0
v -768 -640 0
v -832 -640 0
v -896 -640 0
v -960 -640 0
v -1024 -640 0
v -1088 -640 0
v -1152 -640 0
v -1216 -640 0
v -1280 -640 0
v 0 -704 0
v -64 -704 0
v -128 -704 0
v -192 -704 0
v -256 -704 0
v -320 -704 0
v -384 -704 0
v -448 -704 0
v -512 -704 0
v -576 -704 0
v -640 -704 0
v -704 -704 0
v -768 -704 0
v -832 -704 0
v -896 -704 0
v -960 -704 0
v -1024 -704 0
v -1088 -704 0
v -1152 -704 0
v -1216 -704 0
v -1280 -704 0
v 0 -768 0
v -64 -768 0
v -128 -768 0
v -192 -768 0
v -256 -768 0
v -320 -768 0
v -384 -768 0
v -448 -768 0
v -512 -768 0
v -576 -768 0
v -640 -768 0
v -704 -768 0
v -768 -768 0
v -832 -768 0
v -896 -768 0
v -960 -768 0
v -1024 -768 0
v -1088 -768 0
v -1152 -768 0
v -1216 -768 0
v -1280 -768 0
v 0 -832 0
v -64 -832 0
v -128 -832 0
v -192 -832 0
v -256 -832 0
v -320 -832 0
v -384 -832 0
v -448 -832 0
v -512 -832 0
v -576 -832 0
v -640 -832 0
v -704 -832 0
v -768 -832 0
v -832 -832 0
v -896 -832 0
v -960 -832 0
v -1024 -832 0
v -1088 -832 0
v -1152 -832 0
v -1216 -832 0
v -1280 -832 0
v 0 -896 0
v -64 -896 0
v -128 -896 0
v -192 -896 0
v -256 -896 0
v -320 -896 0
v -384 -896 0
v -448 -896 0
v -512 -896 0
v -576 -896 0
v -640 -896 0
v -704 -896 0
v -768 -896 0
v -832 -896 0
v -896 -896 0
v -960 -896 0
v -1024 -896 0
v -1088 -896 0
v -1152 -896 0
v -1216 -896 0
v -1280 -896 0
v 0 -960 0
v -64 -960 0
v -128 -960 0
v -192 -960 0
v -256 -960 0
v -320 -960 0
v -384 -960 0
v -448 -960 0
v -512 -960 0
v -576 -960 0
v -640 -960 0
v -704 -960 0
v -768 -960 0
v -832 -960 0
v -896 -960 0
v -960 -960 0
v -1024 -960 0
v -1088 -960 0
v -1152 -960 0
v -1216 -960 0
v -1280 -960 0
v 0 -1024 0
v -64 -1024 0
v -128 -1024 0
v -192 -1024 0
v -256 -1024 0
v -320 -1024 0
v -384 -1024 0
v -448 -1024 0
v -512 -1024 0
v -576 -1024 0
v -640 -1024 0
v -704 -1024 0
v -768 -1024 0
v -832 -1024 0
v -896 -1024 0
v -960 -1024 0
v -1024 -1024 0
v -1088 -1024 0
v -1152 -1024 0
v -1216 -1024 0
v -1280 -1024 0

# Texture Coorindates (Count = 12)
vt 0.4001221 0.900122
vt 0.4998779 0.900122
vt 0.4998779 0.9998779
vt 0.4001221 0.9998779
vt 0.0001220703 0.900122
vt 0.09987793 0.900122
vt 0.09987793 0.9998779
vt 0.0001220703 0.9998779
vt 0.2001221 0.900122
vt 0.2998779 0.900122
vt 0.2998779 0.9998779
vt 0.2001221 0.9998779

# Normal
vn 0 0 -1

# Groups (Count = 1)
g mesh_[00]_[00]
f  1/1/1  2/2/1  3/3/1  4/4/1 
f  2/1/1  5/2/1  6/3/1  3/4/1 
f  5/1/1  7/2/1  8/3/1  6/4/1 
f  7/1/1  9/2/1  10/3/1  8/4/1 
f  9/1/1  11/2/1  12/3/1  10/4/1 
f  11/1/1  13/2/1  14/3/1  12/4/1 
f  13/1/1  15/2/1  16/3/1  14/4/1 
f  15/1/1  17/2/1  18/3/1  16/4/1 
f  17/1/1  19/2/1  20/3/1  18/4/1 
f  19/1/1  21/2/1  22/3/1  20/4/1 
f  21/1/1  23/2/1  24/3/1  22/4/1 
f  23/1/1  25/2/1  26/3/1  24/4/1 
f  25/1/1  27/2/1  28/3/1  26/4/1 
f  27/1/1  29/2/1  30/3/1  28/4/1 
f  29/1/1  31/2/1  32/3/1  30/4/1 
f  31/1/1  33/2/1  34/3/1  32/4/1 
f  33/1/1  35/2/1  36/3/1  34/4/1 
f  35/1/1  37/2/1  38/3/1  36/4/1 
f  37/1/1  39/2/1  40/3/1  38/4/1 
f  39/1/1  41/2/1  42/3/1  40/4/1 
f  43/5/1  44/6/1  2/7/1  1/8/1 
f  44/5/1  45/6/1  5/7/1  2/8/1 
f  45/5/1  46/6/1  7/7/1  5/8/1 
f  46/5/1  47/6/1  9/7/1  7/8/1 
f  47/5/1  48/6/1  11/7/1  9/8/1 
f  48/5/1  49/6/1  13/7/1  11/8/1 
f  49/5/1  50/6/1  15/7/1  13/8/1 
f  50/5/1  51/6/1  17/7/1  15/8/1 
f  51/5/1  52/6/1  19/7/1  17/8/1 
f  52/5/1  53/6/1  21/7/1  19/8/1 
f  53/5/1  54/6/1  23/7/1  21/8/1 
f  54/5/1  55/6/1  25/7/1  23/8/1 
f  55/5/1  56/6/1  27/7/1  25/8/1 
f  56/5/1  57/6/1  29/7/1  27/8/1 
f  57/5/1  58/6/1  31/7/1  29/8/1 
f  58/5/1  59/6/1  33/7/1  31/8/1 
f  59/5/1  60/6/1  35/7/1  33/8/1 
f  60/5/1  61/6/1  37/7/1  35/8/1 
f  61/5/1  62/6/1  39/7/1  37/8/1 
f  62/5/1  63/6/1  41/7/1  39/8/1 
f  64/5/1  65/6/1  44/7/1  43/8/1 
f  65/5/1  66/6/1  45/7/1  44/8/1 
f  66/5/1  67/6/1  46/7/1  45/8/1 
f  67/5/1  68/6/1  47/7/1  46/8/1 
f  68/5/1  69/6/1  48/7/1  47/8/1 
f  69/5/1  70/6/1  49/7/1  48/8/1 
f  70/5/1  71/6/1  50/7/1  49/8/1 
f  71/5/1  72/6/1  51/7/1  50/8/1 
f  72/5/1  73/6/1  52/7/1  51/8/1 
f  73/5/1  74/6/1  53/7/1  52/8/1 
f  74/5/1  75/6/1  54/7/1  53/8/1 
f  75/5/1  76/6/1  55/7/1  54/8/1 
f  76/5/1  77/6/1  56/7/1  55/8/1 
f  77/5/1  78/6/1  57/7/1  56/8/1 
f  78/5/1  79/6/1  58/7/1  57/8/1 
f  79/5/1  80/6/1  59/7/1  58/8/1 
f  80/5/1  81/6/1  60/7/1  59/8/1 
f  81/5/1  82/6/1  61/7/1  60/8/1 
f  82/5/1  83/6/1  62/7/1  61/8/1 
f  83/5/1  84/6/1  63/7/1  62/8/1 
f  85/5/1  86/6/1  65/7/1  64/8/1 
f  86/5/1  87/6/1  66/7/1  65/8/1 
f  87/5/1  88/6/1  67/7/1  66/8/1 
f  88/5/1  89/6/1  68/7/1  67/8/1 
f  89/5/1  90/6/1  69/7/1  68/8/1 
f  90/5/1  91/6/1  70/7/1  69/8/1 
f  91/5/1  92/6/1  71/7/1  70/8/1 
f  92/5/1  93/6/1  72/7/1  71/8/1 
f  93/5/1  94/6/1  73/7/1  72/8/1 
f  94/5/1  95/6/1  74/7/1  73/8/1 
f  95/5/1  96/6/1  75/7/1  74/8/1 
f  96/5/1  97/6/1  76/7/1  75/8/1 
f  97/5/1  98/6/1  77/7/1  76/8/1 
f  98/5/1  99/6/1  78/7/1  77/8/1 
f  99/5/1  100/6/1  79/7/1  78/8/1 
f  100/5/1  101/6/1  80/7/1  79/8/1 
f  101/5/1  102/6/1  81/7/1  80/8/1 
f  102/5/1  103/6/1  82/7/1  81/8/1 
f  103/5/1  104/6/1  83/7/1  82/8/1 
f  104/5/1  105/6/1  84/7/1  83/8/1 
f  106/5/1  107/6/1  86/7/1  85/8/1 
f  107/5/1  108/6/1  87/7/1  86/8/1 
f  108/5/1  109/6/1  88/7/1  87/8/1 
f  109/5/1  110/6/1  89/7/1  88/8/1 
f  110/5/1  111/6/1  90/7/1  89/8/1 
f  111/5/1  112/6/1  91/7/1  90/8/1 
f  112/5/1  113/6/1  92/7/1  91/8/1 
f  113/5/1  114/6/1  93/7/1  92/8/1 
f  114/5/1  115/6/1  94/7/1  93/8/1 
f  115/5/1  116/6/1  95/7/1  94/8/1 
f  116/5/1  117/6/1  96/7/1  95/8/1 
f  117/5/1  118/6/1  97/7/1  96/8/1 
f  118/5/1  119/6/1  98/7/1  97/8/1 
f  119/5/1  120/6/1  99/7/1  98/8/1 
f  120/5/1  121/6/1  100/7/1  99/8/1 
f  121/5/1  122/6/1  101/7/1  100/8/1 
f  122/5/1  123/6/1  102/7/1  101/8/1 
f  123/5/1  124/6/1  103/7/1  102/8/1 
f  124/5/1  125/6/1  104/7/1  103/8/1 
f  125/5/1  126/6/1  105/7/1  104/8/1 
f  127/5/1  128/6/1  107/7/1  106/8/1 
f  128/5/1  129/6/1  108/7/1  107/8/1 
f  129/5/1  130/6/1  109/7/1  108/8/1 
f  130/5/1  131/6/1  110/7/1  109/8/1 
f  131/5/1  132/6/1  111/7/1  110/8/1 
f  132/5/1  133/6/1  112/7/1  111/8/1 
f  133/5/1  134/6/1  113/7/1  112/8/1 
f  134/5/1  135/6/1  114/7/1  113/8/1 
f  135/5/1  136/6/1  115/7/1  114/8/1 
f  136/5/1  137/6/1  116/7/1  115/8/1 
f  137/5/1  138/6/1  117/7/1  116/8/1 
f  138/5/1  139/6/1  118/7/1  117/8/1 
f  139/5/1  140/6/1  119/7/1  118/8/1 
f  140/5/1  141/6/1  120/7/1  119/8/1 
f  141/5/1  142/6/1  121/7/1  120/8/1 
f  142/5/1  143/6/1  122/7/1  121/8/1 
f  143/5/1  144/6/1  123/7/1  122/8/1 
f  144/5/1  145/6/1  124/7/1  123/8/1 
f  145/5/1  146/6/1  125/7/1  124/8/1 
f  146/9/1  147/10/1  126/11/1  125/12/1 
f  148/5/1  149/6/1  128/7/1  127/8/1 
f  149/5/1  150/6/1  129/7/1  128/8/1 
f  150/5/1  151/6/1  130/7/1  129/8/1 
f  151/5/1  152/6/1  131/7/1  130/8/1 
f  152/5/1  153/6/1  132/7/1  131/8/1 
f  153/5/1  154/6/1  133/7/1  132/8/1 
f  154/5/1  155/6/1  134/7/1  133/8/1 
f  155/5/1  156/6/1  135/7/1  134/8/1 
f  156/5/1  157/6/1  136/7/1  135/8/1 
f  157/5/1  158/6/1  137/7/1  136/8/1 
f  158/5/1  159/6/1  138/7/1  137/8/1 
f  159/5/1  160/6/1  139/7/1  138/8/1 
f  160/5/1  161/6/1  140/7/1  139/8/1 
f  161/5/1  162/6/1  141/7/1  140/8/1 
f  162/5/1  163/6/1  142/7/1  141/8/1 
f  163/5/1  164/6/1  143/7/1  142/8/1 
f  164/5/1  165/6/1  144/7/1  143/8/1 
f  165/5/1  166/6/1  145/7/1  144/8/1 
f  166/5/1  167/6/1  146/7/1  145/8/1 
f  167/5/1  168/6/1  147/7/1  146/8/1 
f  169/5/1  170/6/1  149/7/1  148/8/1 
f  170/5/1  171/6/1  150/7/1  149/8/1 
f  171/5/1  172/6/1  151/7/1  150/8/1 
f  172/5/1  173/6/1  152/7/1  151/8/1 
f  173/5/1  174/6/1  153/7/1  152/8/1 
f  174/5/1  175/6/1  154/7/1  153/8/1 
f  175/5/1  176/6/1  155/7/1  154/8/1 
f  176/5/1  177/6/1  156/7/1  155/8/1 
f  177/5/1  178/6/1  157/7/1  156/8/1 
f  178/5/1  179/6/1  158/7/1  157/8/1 
f  179/5/1  180/6/1  159/7/1  158/8/1 
f  180/5/1  181/6/1  160/7/1  159/8/1 
f  181/5/1  182/6/1  161/7/1  160/8/1 
f  182/5/1  183/6/1  162/7/1  161/8/1 
f  183/5/1  184/6/1  163/7/1  162/8/1 
f  184/5/1  185/6/1  164/7/1  163/8/1 
f  185/5/1  186/6/1  165/7/1  164/8/1 
f  186/5/1  187/6/1  166/7/1  165/8/1 
f  187/5/1  188/6/1  167/7/1  166/8/1 
f  188/5/1  189/6/1  168/7/1  167/8/1 
f  190/5/1  191/6/1  170/7/1  169/8/1 
f  191/5/1  192/6/1  171/7/1  170/8/1 
f  192/5/1  193/6/1  172/7/1  171/8/1 
f  193/5/1  194/6/1  173/7/1  172/8/1 
f  194/5/1  195/6/1  174/7/1  173/8/1 
f  195/5/1  196/6/1  175/7/1  174/8/1 
f  196/5/1  197/6/1  176/7/1  175/8/1 
f  197/5/1  198/6/1  177/7/1  176/8/1 
f  198/5/1  199/6/1  178/7/1  177/8/1 
f  199/5/1  200/6/1  179/7/1  178/8/1 
f  200/5/1  201/6/1  180/7/1  179/8/1 
f  201/5/1  202/6/1  181/7/1  180/8/1 
f  202/5/1  203/6/1  182/7/1  181/8/1 
f  203/5/1  204/6/1  183/7/1  182/8/1 
f  204/5/1  205/6/1  184/7/1  183/8/1 
f  205/5/1  206/6/1  185/7/1  184/8/1 
f  206/5/1  207/6/1  186/7/1  185/8/1 
f  207/5/1  208/6/1  187/7/1  186/8/1 
f  208/5/1  209/6/1  188/7/1  187/8/1 
f  209/9/1  210/10/1  189/11/1  188/12/1 
f  211/5/1  212/6/1  191/7/1  190/8/1 
f  212/5/1  213/6/1  192/7/1  191/8/1 
f  213/5/1  214/6/1  193/7/1  192/8/1 
f  214/5/1  215/6/1  194/7/1  193/8/1 
f  215/5/1  216/6/1  195/7/1  194/8/1 
f  216/5/1  217/6/1  196/7/1  195/8/1 
f  217/5/1  218/6/1  197/7/1  196/8/1 
f  218/5/1  219/6/1  198/7/1  197/8/1 
f  219/5/1  220/6/1  199/7/1  198/8/1 
f  220/5/1  221/6/1  200/7/1  199/8/1 
f  221/5/1  222/6/1  201/7/1  200/8/1 
f  222/5/1  223/6/1  202/7/1  201/8/1 
f  223/5/1  224/6/1  203/7/1  202/8/1 
f  224/5/1  225/6/1  204/7/1  203/8/1 
f  225/5/1  226/6/1  205/7/1  204/8/1 
f  226/5/1  227/6/1  206/7/1  205/8/1 
f  227/5/1  228/6/1  207/7/1  206/8/1 
f  228/5/1  229/6/1  208/7/1  207/8/1 
f  229/5/1  230/6/1  209/7/1  208/8/1 
f  230/5/1  231/6/1  210/7/1  209/8/1 
f  232/5/1  233/6/1  212/7/1  211/8/1 
f  233/5/1  234/6/1  213/7/1  212/8/1 
f  234/5/1  235/6/1  214/7/1  213/8/1 
f  235/5/1  236/6/1  215/7/1  214/8/1 
f  236/5/1  237/6/1  216/7/1  215/8/1 
f  237/5/1  238/6/1  217/7/1  216/8/1 
f  238/5/1  239/6/1  218/7/1  217/8/1 
f  239/5/1  240/6/1  219/7/1  218/8/1 
f  240/5/1  241/6/1  220/7/1  219/8/1 
f  241/5/1  242/6/1  221/7/1  220/8/1 
f  242/5/1  243/6/1  222/7/1  221/8/1 
f  243/5/1  244/6/1  223/7/1  222/8/1 
f  244/5/1  245/6/1  224/7/1  223/8/1 
f  245/5/1  246/6/1  225/7/1  224/8/1 
f  246/5/1  247/6/1  226/7/1  225/8/1 
f  247/5/1  248/6/1  227/7/1  226/8/1 
f  248/5/1  249/6/1  228/7/1  227/8/1 
f  249/5/1  250/6/1  229/7/1  228/8/1 
f  250/5/1  251/6/1  230/7/1  229/8/1 
f  251/5/1  252/6/1  231/7/1  230/8/1 
f  253/5/1  254/6/1  233/7/1  232/8/1 
f  254/5/1  255/6/1  234/7/1  233/8/1 
f  255/5/1  256/6/1  235/7/1  234/8/1 
f  256/5/1  257/6/1  236/7/1  235/8/1 
f  257/5/1  258/6/1  237/7/1  236/8/1 
f  258/5/1  259/6/1  238/7/1  237/8/1 
f  259/5/1  260/6/1  239/7/1  238/8/1 
f  260/5/1  261/6/1  240/7/1  239/8/1 
f  261/5/1  262/6/1  241/7/1  240/8/1 
f  262/5/1  263/6/1  242/7/1  241/8/1 
f  263/5/1  264/6/1  243/7/1  242/8/1 
f  264/5/1  265/6/1  244/7/1  243/8/1 
f  265/5/1  266/6/1  245/7/1  244/8/1 
f  266/5/1  267/6/1  246/7/1  245/8/1 
f  267/5/1  268/6/1  247/7/1  246/8/1 
f  268/5/1  269/6/1  248/7/1  247/8/1 
f  269/5/1  270/6/1  249/7/1  248/8/1 
f  270/5/1  271/6/1  250/7/1  249/8/1 
f  271/5/1  272/6/1  251/7/1  250/8/1 
f  272/5/1  273/6/1  252/7/1  251/8/1 
f  274/5/1  275/6/1  254/7/1  253/8/1 
f  275/5/1  276/6/1  255/7/1  254/8/1 
f  276/5/1  277/6/1  256/7/1  255/8/1 
f  277/5/1  278/6/1  257/7/1  256/8/1 
f  278/5/1  279/6/1  258/7/1  257/8/1 
f  279/5/1  280/6/1  259/7/1  258/8/1 
f  280/5/1  281/6/1  260/7/1  259/8/1 
f  281/5/1  282/6/1  261/7/1  260/8/1 
f  282/5/1  283/6/1  262/7/1  261/8/1 
f  283/5/1  284/6/1  263/7/1  262/8/1 
f  284/5/1  285/6/1  264/7/1  263/8/1 
f  285/5/1  286/6/1  265/7/1  264/8/1 
f  286/5/1  287/6/1  266/7/1  265/8/1 
f  287/5/1  288/6/1  267/7/1  266/8/1 
f  288/5/1  289/6/1  268/7/1  267/8/1 
f  289/5/1  290/6/1  269/7/1  268/8/1 
f  290/5/1  291/6/1  270/7/1  269/8/1 
f  291/5/1  292/6/1  271/7/1  270/8/1 
f  292/5/1  293/6/1  272/7/1  271/8/1 
f  293/5/1  294/6/1  273/7/1  272/8/1 
f  295/5/1  296/6/1  275/7/1  274/8/1 
f  296/5/1  297/6/1  276/7/1  275/8/1 
f  297/5/1  298/6/1  277/7/1  276/8/1 
f  298/5/1  299/6/1  278/7/1  277/8/1 
f  299/5/1  300/6/1  279/7/1  278/8/1 
f  300/5/1  301/6/1  280/7/1  279/8/1 
f  301/5/1  302/6/1  281/7/1  280/8/1 
f  302/5/1  303/6/1  282/7/1  281/8/1 
f  303/5/1  304/6/1  283/7/1  282/8/1 
f  304/5/1  305/6/1  284/7/1  283/8/1 
f  305/5/1  306/6/1  285/7/1  284/8/1 
f  306/5/1  307/6/1  286/7/1  285/8/1 
f  307/5/1  308/6/1  287/7/1  286/8/1 
f  308/5/1  309/6/1  288/7/1  287/8/1 
f  309/5/1  310/6/1  289/7/1  288/8/1 
f  310/5/1  311/6/1  290/7/1  289/8/1 
f  311/5/1  312/6/1  291/7/1  290/8/1 
f  312/5/1  313/6/1  292/7/1  291/8/1 
f  313/5/1  314/6/1  293/7/1  292/8/1 
f  314/5/1  315/6/1  294/7/1  293/8/1 
f  316/5/1  317/6/1  296/7/1  295/8/1 
f  317/5/1  318/6/1  297/7/1  296/8/1 
f  318/5/1  319/6/1  298/7/1  297/8/1 
f  319/5/1  320/6/1  299/7/1  298/8/1 
f  320/5/1  321/6/1  300/7/1  299/8/1 
f  321/5/1  322/6/1  301/7/1  300/8/1 
f  322/5/1  323/6/1  302/7/1  301/8/1 
f  323/5/1  324/6/1  303/7/1  302/8/1 
f  324/5/1  325/6/1  304/7/1  303/8/1 
f  325/5/1  326/6/1  305/7/1  304/8/1 
f  326/5/1  327/6/1  306/7/1  305/8/1 
f  327/5/1  328/6/1  307/7/1  306/8/1 
f  328/5/1  329/6/1  308/7/1  307/8/1 
f  329/5/1  330/6/1  309/7/1  308/8/1 
f  330/5/1  331/6/1  310/7/1  309/8/1 
f  331/5/1  332/6/1  311/7/1  310/8/1 
f  332/5/1  333/6/1  312/7/1  311/8/1 
f  333/5/1  334/6/1  313/7/1  312/8/1 
f  334/5/1  335/6/1  314/7/1  313/8/1 
f  335/5/1  336/6/1  315/7/1  314/8/1 
f  337/1/1  338/2/1  317/3/1  316/4/1 
f  338/1/1  339/2/1  318/3/1  317/4/1 
f  339/1/1  340/2/1  319/3/1  318/4/1 
f  340/1/1  341/2/1  320/3/1  319/4/1 
f  341/1/1  342/2/1  321/3/1  320/4/1 
f  342/1/1  343/2/1  322/3/1  321/4/1 
f  343/1/1  344/2/1  323/3/1  322/4/1 
f  344/1/1  345/2/1  324/3/1  323/4/1 
f  345/1/1  346/2/1  325/3/1  324/4/1 
f  346/1/1  347/2/1  326/3/1  325/4/1 
f  347/1/1  348/2/1  327/3/1  326/4/1 
f  348/1/1  349/2/1  328/3/1  327/4/1 
f  349/1/1  350/2/1  329/3/1  328/4/1 
f  350/1/1  351/2/1  330/3/1  329/4/1 
f  351/1/1  352/2/1  331/3/1  330/4/1 
f  352/1/1  353/2/1  332/3/1  331/4/1 
f  353/1/1  354/2/1  333/3/1  332/4/1 
f  354/1/1  355/2/1  334/3/1  333/4/1 
f  355/1/1  356/2/1  335/3/1  334/4/1 
f  356/1/1  357/2/1  336/3/1  335/4/1 
